
<svg xmlns="http://www.w3.org/2000/svg" style="display:none">
  <defs>
    <symbol id="bs-arrow-right" viewBox="0 0 24 24" fill="none" stroke="currentColor" stroke-width="2" stroke-linecap="square" stroke-linejoin="miter">
      <path d="M4 12 H20 M14 6 L20 12 L14 18"></path>
    </symbol>
    <symbol id="bs-arrow-up-right" viewBox="0 0 24 24" fill="none" stroke="currentColor" stroke-width="2" stroke-linecap="square">
      <path d="M6 18 L18 6 M8 6 H18 V16"></path>
    </symbol>
    <symbol id="bs-arrow-down" viewBox="0 0 24 24" fill="none" stroke="currentColor" stroke-width="2" stroke-linecap="square">
      <path d="M12 4 V20 M6 14 L12 20 L18 14"></path>
    </symbol>
    <symbol id="bs-arrow-left" viewBox="0 0 24 24" fill="none" stroke="currentColor" stroke-width="2" stroke-linecap="square">
      <path d="M20 12 H4 M10 6 L4 12 L10 18"></path>
    </symbol>

    <symbol id="bs-check" viewBox="0 0 24 24" fill="none" stroke="currentColor" stroke-width="2" stroke-linecap="square">
      <path d="M4 12 L10 18 L20 6"></path>
    </symbol>
    <symbol id="bs-close" viewBox="0 0 24 24" fill="none" stroke="currentColor" stroke-width="2" stroke-linecap="square">
      <path d="M5 5 L19 19 M19 5 L5 19"></path>
    </symbol>
    <symbol id="bs-plus" viewBox="0 0 24 24" fill="none" stroke="currentColor" stroke-width="2" stroke-linecap="square">
      <path d="M12 4 V20 M4 12 H20"></path>
    </symbol>
    <symbol id="bs-minus" viewBox="0 0 24 24" fill="none" stroke="currentColor" stroke-width="2" stroke-linecap="square">
      <path d="M4 12 H20"></path>
    </symbol>

    <symbol id="bs-play" viewBox="0 0 24 24" fill="currentColor">
      <path d="M6 4 L20 12 L6 20 Z"></path>
    </symbol>
    <symbol id="bs-pause" viewBox="0 0 24 24" fill="currentColor">
      <rect x="6" y="4" width="4" height="16"></rect><rect x="14" y="4" width="4" height="16"></rect>
    </symbol>
    <symbol id="bs-stop" viewBox="0 0 24 24" fill="currentColor"><rect x="5" y="5" width="14" height="14"></rect></symbol>

    <symbol id="bs-heart" viewBox="0 0 24 24" fill="none" stroke="currentColor" stroke-width="2" stroke-linecap="square">
      <path d="M12 20 L4 12 C2 10 2 6 5 5 C7.5 4 11 5 12 8 C13 5 16.5 4 19 5 C22 6 22 10 20 12 L12 20 Z"></path>
    </symbol>
    <symbol id="bs-star" viewBox="0 0 24 24" fill="currentColor">
      <path d="M12 2 L14.5 9 L22 9 L16 13.5 L18 21 L12 16.5 L6 21 L8 13.5 L2 9 L9.5 9 Z"></path>
    </symbol>
    <symbol id="bs-bolt" viewBox="0 0 24 24" fill="currentColor"><path d="M13 2 L4 14 H11 L9 22 L20 10 H13 Z"></path></symbol>
    <symbol id="bs-trophy" viewBox="0 0 24 24" fill="none" stroke="currentColor" stroke-width="2" stroke-linecap="square">
      <path d="M7 4 H17 V10 C17 13 15 15 12 15 C9 15 7 13 7 10 Z M7 6 H3 V8 C3 10 5 11 7 11 M17 6 H21 V8 C21 10 19 11 17 11 M9 20 H15 M12 15 V20"></path>
    </symbol>
    <symbol id="bs-target" viewBox="0 0 24 24" fill="none" stroke="currentColor" stroke-width="2">
      <circle cx="12" cy="12" r="9"></circle><circle cx="12" cy="12" r="5"></circle><circle cx="12" cy="12" r="1.5" fill="currentColor"></circle>
    </symbol>
    <symbol id="bs-chart" viewBox="0 0 24 24" fill="none" stroke="currentColor" stroke-width="2" stroke-linecap="square">
      <path d="M4 4 V20 H20 M8 16 V12 M12 16 V8 M16 16 V6"></path>
    </symbol>
    <symbol id="bs-trending-up" viewBox="0 0 24 24" fill="none" stroke="currentColor" stroke-width="2" stroke-linecap="square">
      <path d="M4 16 L10 10 L14 14 L20 6 M14 6 H20 V12"></path>
    </symbol>

    <symbol id="bs-user" viewBox="0 0 24 24" fill="none" stroke="currentColor" stroke-width="2">
      <circle cx="12" cy="8" r="4"></circle><path d="M4 20 C4 16 8 14 12 14 C16 14 20 16 20 20"></path>
    </symbol>
    <symbol id="bs-users" viewBox="0 0 24 24" fill="none" stroke="currentColor" stroke-width="2">
      <circle cx="9" cy="8" r="3.5"></circle><path d="M3 19 C3 15.5 6 14 9 14 C12 14 15 15.5 15 19"></path><path d="M16 6 C18 6 19 7.5 19 9 C19 10.5 18 12 16 12 M17 19 C17 16 19 14.5 21 14.5"></path>
    </symbol>
    <symbol id="bs-mail" viewBox="0 0 24 24" fill="none" stroke="currentColor" stroke-width="2">
      <rect x="3" y="5" width="18" height="14"></rect><path d="M3 6 L12 13 L21 6"></path>
    </symbol>
    <symbol id="bs-phone" viewBox="0 0 24 24" fill="none" stroke="currentColor" stroke-width="2">
      <rect x="7" y="2" width="10" height="20" rx="1"></rect><path d="M10 19 H14"></path>
    </symbol>
    <symbol id="bs-whatsapp" viewBox="0 0 24 24" fill="currentColor">
      <path d="M20 12 C20 16.5 16.5 20 12 20 C10.5 20 9 19.5 7.7 18.8 L4 20 L5.2 16.3 C4.5 15 4 13.5 4 12 C4 7.5 7.5 4 12 4 C16.5 4 20 7.5 20 12 Z M9 9 C9 11.5 12.5 15 15 15 L16 14 L14.5 12.5 L13.5 13 C12.5 12.5 11.5 11.5 11 10.5 L11.5 9.5 L10 8 Z" fill-rule="evenodd"></path>
    </symbol>
    <symbol id="bs-instagram" viewBox="0 0 24 24" fill="none" stroke="currentColor" stroke-width="2">
      <rect x="3" y="3" width="18" height="18" rx="4"></rect><circle cx="12" cy="12" r="4"></circle><circle cx="17.5" cy="6.5" r="1" fill="currentColor"></circle>
    </symbol>
    <symbol id="bs-linkedin" viewBox="0 0 24 24" fill="currentColor">
      <rect x="3" y="3" width="18" height="18"></rect>
      <rect x="6" y="10" width="2.5" height="8" fill="#100F0F"></rect>
      <circle cx="7.25" cy="7.5" r="1.25" fill="#100F0F"></circle>
      <path d="M11 10 H13.5 V11 C14 10.5 15 10 16 10 C18 10 18.5 11.5 18.5 13 V18 H16 V14 C16 13 15.5 12.5 14.75 12.5 C14 12.5 13.5 13 13.5 14 V18 H11 Z" fill="#100F0F"></path>
    </symbol>

    <symbol id="bs-file" viewBox="0 0 24 24" fill="none" stroke="currentColor" stroke-width="2">
      <path d="M6 3 H15 L20 8 V21 H6 Z M15 3 V8 H20"></path>
    </symbol>
    <symbol id="bs-folder" viewBox="0 0 24 24" fill="none" stroke="currentColor" stroke-width="2">
      <path d="M3 6 V19 H21 V9 H12 L10 6 Z"></path>
    </symbol>
    <symbol id="bs-download" viewBox="0 0 24 24" fill="none" stroke="currentColor" stroke-width="2" stroke-linecap="square">
      <path d="M12 3 V15 M6 9 L12 15 L18 9 M4 20 H20"></path>
    </symbol>
    <symbol id="bs-search" viewBox="0 0 24 24" fill="none" stroke="currentColor" stroke-width="2" stroke-linecap="square">
      <circle cx="10.5" cy="10.5" r="6"></circle><path d="M15 15 L21 21"></path>
    </symbol>
    <symbol id="bs-settings" viewBox="0 0 24 24" fill="none" stroke="currentColor" stroke-width="2">
      <circle cx="12" cy="12" r="3"></circle>
      <path d="M12 2 V5 M12 19 V22 M2 12 H5 M19 12 H22 M4.9 4.9 L7 7 M17 17 L19.1 19.1 M4.9 19.1 L7 17 M17 7 L19.1 4.9"></path>
    </symbol>
    <symbol id="bs-menu" viewBox="0 0 24 24" fill="none" stroke="currentColor" stroke-width="2" stroke-linecap="square">
      <path d="M4 7 H20 M4 12 H20 M4 17 H20"></path>
    </symbol>
    <symbol id="bs-clock" viewBox="0 0 24 24" fill="none" stroke="currentColor" stroke-width="2">
      <circle cx="12" cy="12" r="9"></circle><path d="M12 6 V12 L16 14"></path>
    </symbol>
    <symbol id="bs-alert" viewBox="0 0 24 24" fill="none" stroke="currentColor" stroke-width="2" stroke-linecap="square">
      <path d="M12 3 L22 20 H2 Z M12 10 V14 M12 17 V17.5"></path>
    </symbol>
    <symbol id="bs-info" viewBox="0 0 24 24" fill="none" stroke="currentColor" stroke-width="2">
      <circle cx="12" cy="12" r="9"></circle><path d="M12 8 V8.5 M12 11 V17"></path>
    </symbol>

    <symbol id="bs-controller" viewBox="0 0 24 24" fill="none" stroke="currentColor" stroke-width="2" stroke-linecap="square">
      <rect x="2" y="7" width="20" height="12" rx="3"></rect>
      <path d="M7 11 V15 M5 13 H9 M15 12 V12.5 M18 14 V14.5"></path>
    </symbol>
    <symbol id="bs-heart-pixel" viewBox="0 0 16 16" fill="currentColor" shape-rendering="crispEdges">
      <path d="M3 3 H5 V4 H6 V5 H10 V4 H11 V3 H13 V4 H14 V9 H13 V10 H12 V11 H11 V12 H10 V13 H9 V14 H7 V13 H6 V12 H5 V11 H4 V10 H3 V9 H2 V4 H3 Z"></path>
    </symbol>
    <symbol id="bs-coin" viewBox="0 0 16 16" fill="currentColor" shape-rendering="crispEdges">
      <path d="M5 2 H11 V3 H13 V5 H14 V11 H13 V13 H11 V14 H5 V13 H3 V11 H2 V5 H3 V3 H5 Z"></path>
      <path d="M7 5 H9 V6 H10 V10 H9 V11 H7 V10 H6 V6 H7 Z" fill="#100F0F"></path>
    </symbol>
  </defs>
</svg>