<svg xmlns="http://www.w3.org/2000/svg" viewBox="0 0 64 64" role="img" aria-label="Bit System">
  <defs>
    <linearGradient id="g" x1="0%" x2="100%" y1="0%" y2="100%">
      <stop offset="0%" stop-color="#00FFD1" />
      <stop offset="100%" stop-color="#8DFFDF" />
    </linearGradient>
  </defs>
  <rect width="64" height="64" rx="18" fill="#101828" />
  <path d="M18 18h15c7 0 12 4 12 10 0 4-2 7-6 8 5 1 8 4 8 9 0 7-6 11-14 11H18z" fill="url(#g)" />
  <path d="M28 26h4c3 0 5-1 5-4 0-2-2-4-5-4h-4zm0 16h5c4 0 6-2 6-5s-2-5-6-5h-5z" fill="#101828" />
</svg>
