<svg xmlns="http://www.w3.org/2000/svg" width="19.200" height="16.800" viewBox="0 0 19.200 16.800" fill="none">
  <path d="M 0 6.999 C -0.552 6.999 -1 7.447 -1 7.999 C -1 8.552 -0.552 8.999 0 8.999 L 0 6.999 Z M 4.8 7.999 L 4.8 8.999 C 5.24 8.999 5.628 8.712 5.756 8.292 L 4.8 7.999 Z M 7.249 0 L 8.203 -0.3 C 8.071 -0.718 7.683 -1.002 7.245 -1 C 6.807 -0.998 6.421 -0.712 6.292 -0.293 L 7.249 0 Z M 12.526 16.8 L 11.572 17.1 C 11.708 17.533 12.12 17.821 12.574 17.799 C 13.028 17.777 13.41 17.452 13.504 17.007 L 12.526 16.8 Z M 14.388 7.999 L 14.388 6.999 C 13.916 6.999 13.508 7.33 13.41 7.792 L 14.388 7.999 Z M 19.2 8.999 C 19.752 8.999 20.2 8.552 20.2 7.999 C 20.2 7.447 19.752 6.999 19.2 6.999 L 19.2 8.999 Z M 0 7.999 L 0 8.999 L 4.8 8.999 L 4.8 7.999 L 4.8 6.999 L 0 6.999 L 0 7.999 Z M 4.8 7.999 L 5.756 8.292 L 8.205 0.293 L 7.249 0 L 6.292 -0.293 L 3.844 7.707 L 4.8 7.999 Z M 7.249 0 L 6.294 0.3 L 11.572 17.1 L 12.526 16.8 L 13.48 16.5 L 8.203 -0.3 L 7.249 0 Z M 12.526 16.8 L 13.504 17.007 L 15.367 8.206 L 14.388 7.999 L 13.41 7.792 L 11.547 16.593 L 12.526 16.8 Z M 14.388 7.999 L 14.388 8.999 L 19.2 8.999 L 19.2 7.999 L 19.2 6.999 L 14.388 6.999 L 14.388 7.999 Z" fill="currentColor" fill-rule="nonzero"/>
</svg>
